<svg xmlns="http://www.w3.org/2000/svg" viewBox="0 0 13576.52 1754.36"><g id="Layer_2" data-name="Layer 2"><g id="Layer_1-2" data-name="Layer 1"><path d="M4549,1308.42v26.51c0,122.19-44.35,169.91-171.84,182.2l-361,7.23c-368,0-396.45-26.51-396.45-369.94,0-255,14.22-320.3,81.46-355.72,56.63-30.13,136.16-37.36,414-37.36,387.78,0,423.2,15.91,423.2,187.74h260c-1.69-147-28.2-247.75-77.85-301-76.16-83.15-210.64-106-619.38-106-373.55,0-495.74,14.22-596.48,70.61-123.88,69.17-157.62,180.75-157.62,510,0,166.3,8.92,304.39,24.82,364.4,22.9,90.38,67.24,154,134.49,191.36,104.35,56.63,191.11,65.31,662,65.31,383.92,0,495.51-21.21,577-111.34,49.65-53.26,67.24-136.41,67.24-304.63v-19.28Z"/><path d="M6053.1,980.89c-67.24-74.23-171.59-93.75-491.89-93.75-240.76,0-339.81,17.6-412.36,76.16-51.33,40.73-70.85,88.45-74.46,180.51h235.46c8.91-88.69,40.72-99.29,279.56-99.29,255,0,288.48,21.45,288.48,189.43v90.37c-35.18-86.76-102.67-108-337.89-108-417.9,0-502.73,46-502.73,274.26,0,109.9,30.13,177.13,97.37,214.25,58.32,33.5,154,44.1,376.93,44.1,256.66,0,339.81-33.5,369.94-148.45v132.55H6115V1220C6115,1085.25,6102.75,1035.84,6053.1,980.89Zm-472.37,612.4c-115.2,0-171.83-1.69-200-5.31-79.77-12.29-111.58-44.34-111.58-109.65,0-42.42,17.59-77.85,46-90.38,42.42-19.52,120.26-28.2,251.36-28.2,141.47,0,224.86,8.68,269,28.2,28.44,10.6,44.35,42.42,44.35,83.15C5879.82,1570.39,5823.18,1593.29,5580.73,1593.29Z"/><path d="M7274.27,1004c-44.11-78.08-148.46-116.89-315-116.89-108,0-194.73,17.6-249.44,47.72-42.66,24.83-63.87,54.95-101,143.4V903.05H6384v830h233.77V1306.49c0-168,74.23-233.53,270.65-233.53,97.37,0,162.92,22.89,184.13,63.62,14.22,30.13,17.83,55,17.83,127.49h221.24c1.69-22.89,1.69-44.1,1.69-53C7313.31,1112,7302.71,1053.44,7274.27,1004Z"/><path d="M7499.12,549V1733.07h233.54V549Z"/><path d="M8844.17,903.05V1322.4c0,180.75-83.15,242.69-327.53,242.69-226.54,0-281.25-39-281.25-198.35V903.05H8001.62v474.3c0,138.09,19.52,210.63,72.54,270.88,69.17,76.16,175.21,106,371.87,106,263.66,0,350.42-42.42,403.44-201.72v180.51H9077.7v-830Z"/><path d="M10329,1274.68c-68.93-38.8-152.07-49.41-368-49.41H9831.56c-233.54,0-272.34-12.53-272.34-83.39,0-75.91,63.63-99.05,284.87-99.05,238.83,0,293.78,15.91,293.78,85.08v7h242.45v-5.31c0-93.75-30.12-157.61-88.44-189.43-74.48-40.73-173.53-53-430.2-53-168,0-284.86,8.92-359.09,24.83-132.8,29.88-184.13,99-184.13,242.45,0,161,72.54,222.93,277.88,237.14,46,1.69,244.13,5.31,325.59,3.62,209-3.62,256.67,15.91,256.67,97.12,0,81.46-55,101-288.48,101-288.48,0-338.13-15.91-338.13-116.89v-8.68H9307.86v8.68c0,88.69,14,138.09,54.71,182.44,61.93,70.85,161.23,90.13,446.09,90.13,217.63,0,346.81-7,417.66-22.89,139.78-31.81,191.12-101,191.12-253.06C10417.44,1372,10389.24,1308.42,10329,1274.68Z"/><path d="M10647.6,903.05v830h233.53v-830Z"/><path d="M12182.07,984.51c-78.09-72.54-205.34-97.37-497.43-97.37-118.58,0-288.49,14.22-350.42,30.13-47.72,12.29-95.68,35.43-125.81,61.94-63.62,56.63-88.45,148.7-88.45,336.2,0,368.25,85.08,433.56,555.76,433.56,159.3,0,323.91-14,389.46-33.5,42.42-12.53,93.75-40.73,123.88-70.85,46-46,74.23-164.61,74.23-311.38C12263.29,1124.29,12244,1042.83,12182.07,984.51Zm-230.16,555.75c-40.73,22.9-118.58,31.82-286.8,31.82-262,0-308-37.12-308-251.37,0-104.35,12.53-159.3,46-196.42,39.05-46,115.2-60.25,322.23-60.25,256.66,0,300.77,39,300.77,262C12026.14,1451.81,12006.86,1508.45,11951.91,1540.26Z"/><path d="M13504,987.88c-68.92-75.91-175.21-106-371.62-106-263.66,0-350.42,42.42-403.69,201.72V903.05h-228.23v830H12734V1313.72c0-180.51,83.38-242.45,327.52-242.45,222.93,0,281.49,40.73,281.49,198.11v463.69h233.54v-474.3C13576.52,1120.68,13557,1048.13,13504,987.88Z"/><path d="M3040.69,525.78l-139,301.63a2.83,2.83,0,0,1-2.57,1.66H945.73a2.82,2.82,0,0,0-2.57,1.65L661.53,1442.44a2.87,2.87,0,0,0,2.57,4h639.35a2.87,2.87,0,0,1,2.57,4L1167,1752.34a2.8,2.8,0,0,1-2.57,1.65H2.81a2.87,2.87,0,0,1-2.57-4L480.61,706.52a2.84,2.84,0,0,0-.28-2.94L349.89,526.24a2.84,2.84,0,0,1,2.29-4.5H3038.12A2.87,2.87,0,0,1,3040.69,525.78Z"/><path d="M2614.21,1451l-138.89,301.54a3.14,3.14,0,0,1-2.84,1.84H1298.22a3.13,3.13,0,0,1-2.84-4.41l371.21-806.32a3.14,3.14,0,0,1,2.85-1.84h512.67a3.13,3.13,0,0,1,2.85,4.41l-228.39,496a3.13,3.13,0,0,0,2.85,4.41h651.94A3.13,3.13,0,0,1,2614.21,1451Z"/><polygon points="11514.58 0 10764.36 750.22 10417.44 428.29 10759.6 578.98 11514.58 0"/></g></g></svg>