<svg width="229" height="62" viewBox="0 0 229 62" fill="none" xmlns="http://www.w3.org/2000/svg">
<g filter="url(#filter0_d_715_714)">
<path d="M16.9229 9.27037L4.30308 49.4605C2.96918 53.7018 6.20534 58 10.7348 58H103.51C106.857 58 109.809 55.8623 110.795 52.7296L123.415 12.5395C124.749 8.29816 121.512 4 116.983 4H24.2072C20.8609 4 17.9089 6.13771 16.9229 9.27037Z" fill="#175FFF"/>
<path d="M19.6641 31.0012C19.6641 20.5002 27.9516 12.5293 38.82 12.5293C47.9486 12.5293 55.2328 18.1692 57.0307 26.0833H50.3786C48.7431 21.5293 44.2542 18.4762 38.82 18.4762C31.6402 18.4762 26.1538 23.8546 26.1538 30.9955C26.1538 38.1364 31.6402 43.5148 38.82 43.5148C44.2542 43.5148 48.7431 40.4617 50.3786 35.9077H57.0307C55.2386 43.8218 47.9544 49.4617 38.82 49.4617C27.9458 49.4617 19.6641 41.4965 19.6641 30.9898V31.0012Z" fill="white"/>
<path d="M59.7812 35.6573C59.7812 27.7944 65.43 21.8418 73.0274 21.8418C76.9885 21.8418 80.2595 23.4962 82.475 26.2423V22.4672H88.3847V48.8532H82.475V45.0781C80.2595 47.8184 76.9885 49.4729 73.0274 49.4729C65.43 49.4729 59.7812 43.5203 59.7812 35.6573ZM82.475 35.6573C82.475 31.001 78.9372 27.4305 74.1874 27.4305C69.4375 27.4305 65.8476 31.001 65.8476 35.6573C65.8476 40.3137 69.3853 43.8841 74.1874 43.8841C78.9894 43.8841 82.475 40.3137 82.475 35.6573Z" fill="white"/>
<path d="M93.0859 22.4621H98.9957V26.8626C101.107 23.8607 104.221 22.0527 108.02 22.0527H108.971V28.0054H108.02C102.319 28.0054 98.9957 31.1608 98.9957 36.0275V48.8594H93.0859V22.4734V22.4621Z" fill="white"/>
<path d="M129.534 12.5293H135.983L125.66 48.8477H119.211L129.534 12.5293Z" fill="#175FFF"/>
<path d="M133.914 35.6573C133.914 27.7944 139.563 21.8418 147.16 21.8418C151.121 21.8418 154.392 23.4962 156.608 26.2423V22.4672H162.518V48.8532H156.608V45.0781C154.392 47.8184 151.121 49.4729 147.16 49.4729C139.563 49.4729 133.914 43.5203 133.914 35.6573ZM156.608 35.6573C156.608 31.001 153.07 27.4305 148.32 27.4305C143.57 27.4305 139.98 31.001 139.98 35.6573C139.98 40.3137 143.518 43.8841 148.32 43.8841C153.122 43.8841 156.608 40.3137 156.608 35.6573Z" fill="#175FFF"/>
<path d="M167.225 22.4615H173.134V25.8273C175.298 23.2404 178.412 21.8418 182.211 21.8418C188.596 21.8418 192.87 25.9808 192.87 32.2404V48.8475H186.96V34.1564C186.96 30.1197 184.322 27.4305 180.256 27.4305C175.982 27.4305 173.129 30.1709 173.129 34.2587V48.8475H167.219V22.4615H167.225Z" fill="#175FFF"/>
<path d="M196.188 35.6573C196.188 27.7944 202.364 21.8418 210.594 21.8418C218.823 21.8418 225 27.7944 225 35.6573C225 43.5203 218.771 49.4729 210.594 49.4729C202.416 49.4729 196.188 43.5203 196.188 35.6573ZM218.881 35.6573C218.881 31.001 215.343 27.4305 210.594 27.4305C205.844 27.4305 202.254 31.001 202.254 35.6573C202.254 40.3137 205.844 43.8841 210.594 43.8841C215.343 43.8841 218.881 40.3137 218.881 35.6573Z" fill="#175FFF"/>
</g>
<defs>
<filter id="filter0_d_715_714" x="0" y="0" width="229" height="62" filterUnits="userSpaceOnUse" color-interpolation-filters="sRGB">
<feFlood flood-opacity="0" result="BackgroundImageFix"/>
<feColorMatrix in="SourceAlpha" type="matrix" values="0 0 0 0 0 0 0 0 0 0 0 0 0 0 0 0 0 0 127 0" result="hardAlpha"/>
<feOffset/>
<feGaussianBlur stdDeviation="2"/>
<feComposite in2="hardAlpha" operator="out"/>
<feColorMatrix type="matrix" values="0 0 0 0 0 0 0 0 0 0 0 0 0 0 0 0 0 0 0.15 0"/>
<feBlend mode="normal" in2="BackgroundImageFix" result="effect1_dropShadow_715_714"/>
<feBlend mode="normal" in="SourceGraphic" in2="effect1_dropShadow_715_714" result="shape"/>
</filter>
</defs>
</svg>
