<svg width="188" height="188" viewBox="0 0 188 188" fill="none" xmlns="http://www.w3.org/2000/svg">
<path d="M94 0C69.0696 0 45.1604 9.90354 27.532 27.532C9.90354 45.1604 0 69.0696 0 94C0 118.93 9.90354 142.84 27.532 160.468C45.1604 178.096 69.0696 188 94 188C106.344 188 118.568 185.569 129.972 180.845C141.377 176.121 151.739 169.197 160.468 160.468C169.197 151.739 176.121 141.377 180.845 129.972C185.569 118.568 188 106.344 188 94C188 81.6557 185.569 69.4324 180.845 58.0278C176.121 46.6232 169.197 36.2607 160.468 27.532C151.739 18.8033 141.377 11.8793 129.972 7.15532C118.568 2.43138 106.344 0 94 0ZM94 32.8C127.757 32.8 155.2 60.2428 155.2 94C155.2 127.757 127.757 155.2 94 155.2C60.2428 155.2 32.8 127.757 32.8 94C32.8 60.2428 60.2428 32.8 94 32.8ZM94 40C85.8332 40 78.0972 41.808 71.164 45.0408C75.7828 58.1928 83.6872 74.8 94 74.8C104.329 74.8 111.97 58.14 116.701 44.978C109.802 41.7848 102.114 40 94 40ZM133.501 57.152C122.415 65.6092 109.044 78.268 112.233 88.0828C115.425 97.9084 133.636 100.026 147.616 100.457C147.868 98.3396 148 96.186 148 94C148 79.7432 142.498 66.7952 133.501 57.152ZM54.4092 57.2492C45.4652 66.8816 40 79.7908 40 94C40 96.22 40.136 98.4072 40.3952 100.556C54.3284 100.226 72.5476 97.8388 75.7328 88.036C78.9224 78.2192 65.4608 65.8148 54.4092 57.2492ZM82.4844 74.7064C81.7593 74.7268 81.0573 74.9658 80.4704 75.392C79.6982 75.9533 79.1805 76.7983 79.0312 77.7412C78.882 78.6841 79.1133 79.6477 79.6744 80.42C80.2355 81.1924 81.0804 81.7103 82.0233 81.8598C82.9662 82.0093 83.9299 81.7782 84.7024 81.2172C85.0849 80.9393 85.409 80.5889 85.6561 80.1858C85.9032 79.7826 86.0684 79.3348 86.1424 78.8678C86.2164 78.4009 86.1977 77.9239 86.0873 77.4641C85.977 77.0044 85.7771 76.5709 85.4992 76.1884C85.155 75.7149 84.7006 75.3324 84.1753 75.0742C83.6499 74.8159 83.0695 74.6897 82.4844 74.7064ZM105.516 74.7064C105.431 74.7039 105.346 74.7045 105.261 74.708C104.719 74.7309 104.189 74.8759 103.711 75.1321C103.234 75.3884 102.82 75.7494 102.501 76.188C102.223 76.5705 102.023 77.004 101.913 77.4638C101.802 77.9236 101.783 78.4006 101.857 78.8677C101.931 79.3347 102.097 79.7826 102.344 80.1857C102.591 80.5888 102.915 80.9393 103.298 81.2172C104.07 81.7782 105.034 82.0094 105.977 81.86C106.92 81.7106 107.764 81.1927 108.326 80.4204C108.887 79.6481 109.118 78.6845 108.969 77.7416C108.82 76.7987 108.302 75.9537 107.53 75.3924C106.943 74.966 106.241 74.7269 105.516 74.7064ZM94 81.2C90.6052 81.2 87.3495 82.5486 84.949 84.949C82.5486 87.3495 81.2 90.6052 81.2 94C81.2 97.3948 82.5486 100.65 84.949 103.051C87.3495 105.451 90.6052 106.8 94 106.8C97.3948 106.8 100.65 105.451 103.051 103.051C105.451 100.65 106.8 97.3948 106.8 94C106.8 90.6052 105.451 87.3495 103.051 84.949C100.65 82.5486 97.3948 81.2 94 81.2ZM75.4812 96.4148C75.1208 96.42 74.7632 96.4794 74.4204 96.5908C73.9707 96.7368 73.5542 96.97 73.1946 97.277C72.835 97.584 72.5395 97.9589 72.3248 98.3801C72.1101 98.8014 71.9805 99.2608 71.9433 99.7321C71.9062 100.203 71.9623 100.678 72.1084 101.127C72.4035 102.035 73.0471 102.789 73.8978 103.222C74.7484 103.656 75.7364 103.733 76.6444 103.438C77.094 103.292 77.5105 103.059 77.8701 102.752C78.2296 102.445 78.5252 102.07 78.7399 101.649C78.9545 101.228 79.0842 100.769 79.1213 100.297C79.1585 99.826 79.1024 99.3521 78.9564 98.9024C78.7188 98.1709 78.2533 97.5348 77.6279 97.0871C77.0025 96.6395 76.2502 96.4038 75.4812 96.4148ZM112.624 96.418C111.837 96.3839 111.062 96.6082 110.415 97.0569C109.769 97.5055 109.287 98.1536 109.044 98.902C108.898 99.3516 108.842 99.8257 108.879 100.297C108.916 100.768 109.045 101.228 109.26 101.649C109.475 102.07 109.77 102.445 110.13 102.752C110.489 103.059 110.906 103.292 111.356 103.438C112.264 103.733 113.251 103.655 114.102 103.222C114.953 102.789 115.596 102.035 115.892 101.127C116.038 100.678 116.094 100.203 116.057 99.7321C116.02 99.2608 115.89 98.8014 115.675 98.3801C115.461 97.9589 115.165 97.584 114.805 97.277C114.446 96.97 114.029 96.7368 113.58 96.5908C113.27 96.4903 112.949 96.4321 112.624 96.418ZM75.7664 107.503C67.1304 107.545 55.6704 114.236 46.7968 120.274C54.4084 133.942 67.7808 143.94 83.654 147.009C87.65 133.653 91.022 115.562 82.6756 109.498C80.734 108.088 78.3808 107.49 75.7664 107.503ZM112.173 107.511C109.541 107.511 107.176 108.118 105.234 109.528C96.8764 115.6 100.489 133.57 104.399 146.999C120.274 143.913 133.642 133.895 141.239 120.21C132.437 114.12 120.865 107.511 112.173 107.511V107.511ZM94 109.832C93.0452 109.832 92.1295 110.211 91.4544 110.886C90.7793 111.562 90.4 112.477 90.4 113.432C90.4 114.387 90.7793 115.302 91.4544 115.978C92.1295 116.653 93.0452 117.032 94 117.032C94.9548 117.032 95.8705 116.653 96.5456 115.978C97.2207 115.302 97.6 114.387 97.6 113.432C97.6 112.477 97.2207 111.562 96.5456 110.886C95.8705 110.211 94.9548 109.832 94 109.832Z" fill="url(#paint0_linear_1115_2509)"/>
<defs>
<linearGradient id="paint0_linear_1115_2509" x1="32.5" y1="19" x2="137.5" y2="188" gradientUnits="userSpaceOnUse">
<stop offset="0.0106906" stop-color="#1E599B"/>
<stop offset="1" stop-color="#7FADE0"/>
</linearGradient>
</defs>
</svg>
