<svg width="18" height="18" viewBox="0 0 18 18" fill="none" xmlns="http://www.w3.org/2000/svg">
<path d="M8.65039 1.44141V6.48724L10.0921 5.04557" stroke="#1A2042" stroke-linecap="round" stroke-linejoin="round"/>
<path d="M8.64967 6.48757L7.20801 5.0459" stroke="#1A2042" stroke-linecap="round" stroke-linejoin="round"/>
<path d="M1.42773 9.37109H4.60661C4.88053 9.37109 5.12561 9.52247 5.24815 9.76755L6.09153 11.4543C6.33661 11.9445 6.83398 12.2544 7.38182 12.2544H9.92636C10.4742 12.2544 10.9716 11.9445 11.2167 11.4543L12.06 9.76755C12.1826 9.52247 12.4349 9.37109 12.7016 9.37109H15.8444" stroke="#1A2042" stroke-linecap="round" stroke-linejoin="round"/>
<path d="M5.04557 2.97656C2.49382 3.3514 1.44141 4.85073 1.44141 7.92869V10.812C1.44141 14.4162 2.88307 15.8579 6.48724 15.8579H10.8122C14.4164 15.8579 15.8581 14.4162 15.8581 10.812V7.92869C15.8581 4.85073 14.8057 3.3514 12.2539 2.97656" stroke="#1A2042" stroke-linecap="round" stroke-linejoin="round"/>
</svg>
