<svg width="13" height="13" viewBox="0 0 13 13" fill="none" xmlns="http://www.w3.org/2000/svg">
<path d="M0 0H2.29412C2.50824 0 2.69941 0.0752631 2.83706 0.198421L4.42765 1.62842L5.03941 1.08789C5.35294 0.821053 5.73529 0.684211 6.11765 0.684211H10.7059C11.0882 0.684211 11.4706 0.821053 11.7841 1.08789L12.5488 1.77211C12.8471 2.05263 13 2.39474 13 2.73684V11.6316C13 11.9945 12.8389 12.3426 12.552 12.5992C12.2652 12.8558 11.8762 13 11.4706 13H3.82353C3.4179 13 3.02889 12.8558 2.74207 12.5992C2.45525 12.3426 2.29412 11.9945 2.29412 11.6316V4.10526C2.29412 3.76316 2.44706 3.42105 2.74529 3.14053L3.34941 2.59316L1.98059 1.36842H0V0ZM6.11765 2.05263V3.42105H10.7059V2.05263H6.11765ZM6.43118 6.1579L4.90176 4.78947H3.82353V5.75421L5.35294 7.12263V9.29842L3.82353 10.6668V11.6316H4.90176L6.43118 10.2632H8.86294L10.3924 11.6316H11.4706V10.6668L9.94118 9.29842V7.12263L11.4706 5.75421V4.78947H10.3924L8.86294 6.1579H6.43118ZM6.88235 7.52632H8.41177V8.89474H6.88235V7.52632Z" fill="#1A2042"/>
</svg>
