<svg width="19" height="18" viewBox="0 0 19 18" fill="none" xmlns="http://www.w3.org/2000/svg">
<path d="M17.8711 6.86531H17.1834V6.82988H9.49975V10.2448H14.3246C13.6207 12.2327 11.7293 13.6598 9.49975 13.6598C6.6709 13.6598 4.37734 11.3662 4.37734 8.53735C4.37734 5.7085 6.6709 3.41494 9.49975 3.41494C10.8055 3.41494 11.9935 3.90755 12.898 4.71219L15.3128 2.2974C13.7881 0.876359 11.7485 0 9.49975 0C4.785 0 0.962402 3.8226 0.962402 8.53735C0.962402 13.2521 4.785 17.0747 9.49975 17.0747C14.2145 17.0747 18.0371 13.2521 18.0371 8.53735C18.0371 7.96492 17.9782 7.40615 17.8711 6.86531Z" fill="#FFC107"/>
<path d="M1.94629 4.56364L4.75124 6.62072C5.51021 4.74165 7.3483 3.41494 9.49929 3.41494C10.8051 3.41494 11.993 3.90755 12.8976 4.71219L15.3124 2.2974C13.7876 0.876359 11.748 0 9.49929 0C6.22009 0 3.3763 1.85132 1.94629 4.56364Z" fill="#FF3D00"/>
<path d="M9.49979 17.0749C11.705 17.0749 13.7087 16.231 15.2237 14.8586L12.5813 12.6227C11.6954 13.2964 10.6128 13.6608 9.49979 13.66C7.27923 13.66 5.39375 12.244 4.68344 10.2681L1.89941 12.4131C3.31235 15.1779 6.18175 17.0749 9.49979 17.0749Z" fill="#4CAF50"/>
<path d="M17.8711 6.86551H17.1834V6.83008H9.49976V10.245H14.3246C13.9879 11.1911 13.3814 12.0179 12.58 12.6231L12.5813 12.6222L15.2236 14.8582C15.0367 15.0281 18.0371 12.8062 18.0371 8.53755C18.0371 7.96512 17.9782 7.40635 17.8711 6.86551Z" fill="#1976D2"/>
</svg>
