<svg width="141" height="28" viewBox="0 0 141 28" fill="none" xmlns="http://www.w3.org/2000/svg">
<path d="M16.5555 20.8833V21.3064C16.5555 23.2566 15.9447 24.0182 14.1887 24.2144L9.21631 24.3298C4.14756 24.3298 3.7557 23.9067 3.7557 18.4254C3.7557 14.3556 3.95156 13.3134 4.87771 12.7481C5.65772 12.2672 6.75315 12.1518 10.5801 12.1518C15.9213 12.1518 16.4091 12.4057 16.4091 15.1482H19.9903C19.967 12.802 19.6019 11.194 18.918 10.3441C17.869 9.01704 16.0167 8.65234 10.3868 8.65234C5.24161 8.65234 3.55859 8.8793 2.17102 9.7793C0.464726 10.8833 0 12.6641 0 17.919C0 20.5732 0.122863 22.7771 0.341866 23.7349C0.657286 25.1774 1.26802 26.1928 2.1943 26.7891C3.6316 27.6929 4.82661 27.8314 11.3125 27.8314C16.6006 27.8314 18.1376 27.4929 19.26 26.0544C19.9439 25.2044 20.1862 23.8773 20.1862 21.1925V20.8847L16.5555 20.8833Z" fill="#1A2042"/>
<path d="M37.2731 15.6545C36.3469 14.4697 34.9096 14.1582 30.4979 14.1582C27.1817 14.1582 25.8174 14.4391 24.8181 15.3737C24.1111 16.0238 23.8423 16.7854 23.7925 18.2547H27.0357C27.1584 16.8392 27.5966 16.67 30.8863 16.67C34.3986 16.67 34.8598 17.0124 34.8598 19.6934V21.1357C34.3752 19.751 33.4456 19.412 30.2057 19.412C24.4497 19.412 23.2812 20.1462 23.2812 23.7892C23.2812 25.5433 23.6963 26.6163 24.6224 27.2087C25.4257 27.7434 26.7436 27.9126 29.8141 27.9126C33.3493 27.9126 34.4946 27.3779 34.9096 25.5433V27.6588H38.1257V19.4707C38.1257 17.3201 37.9569 16.5315 37.2731 15.6545ZM30.7667 25.4285C29.18 25.4285 28.4 25.4016 28.012 25.3438C26.9133 25.1476 26.4751 24.6361 26.4751 23.5937C26.4751 22.9167 26.7174 22.3512 27.1087 22.1512C27.693 21.8397 28.7651 21.7012 30.5709 21.7012C32.5195 21.7012 33.6681 21.8397 34.276 22.1512C34.6678 22.3204 34.8869 22.8283 34.8869 23.4783C34.8863 25.063 34.1062 25.4285 30.7667 25.4285Z" fill="#1A2042"/>
<path d="M54.0925 16.0238C53.4849 14.7776 52.0476 14.1582 49.7537 14.1582C48.2662 14.1582 47.0716 14.4391 46.318 14.9198C45.7304 15.3161 45.4383 15.7968 44.9268 17.2085V14.4126H41.8301V27.6596H45.05V20.8516C45.05 18.1703 46.0724 17.1244 48.7778 17.1244C50.119 17.1244 51.0219 17.4897 51.314 18.1398C51.5099 18.6207 51.5596 19.0176 51.5596 20.1746H54.6069C54.6302 19.8092 54.6302 19.4707 54.6302 19.3287C54.6302 17.7475 54.4842 16.8129 54.0925 16.0238Z" fill="#1A2042"/>
<path d="M57.1895 8.76172V27.6598H60.4062V8.76172H57.1895Z" fill="#1A2042"/>
<path d="M75.7164 14.4126V21.1055C75.7164 23.9903 74.5711 24.9789 71.2051 24.9789C68.0848 24.9789 67.3312 24.3565 67.3312 21.8132V14.4126H64.1113V21.9825C64.1113 24.1865 64.3802 25.3442 65.1105 26.3058C66.0632 27.5214 67.5238 27.9976 70.2325 27.9976C73.8641 27.9976 75.0591 27.3206 75.7894 24.7781V27.6591H78.933V14.4121L75.7164 14.4126Z" fill="#1A2042"/>
<path d="M96.1685 20.3449C95.219 19.7257 94.0739 19.5563 91.0997 19.5563H89.3168C86.1001 19.5563 85.5657 19.3563 85.5657 18.2254C85.5657 17.0138 86.4421 16.6445 89.4894 16.6445C92.779 16.6445 93.5359 16.8985 93.5359 18.0024V18.1141H96.8753V18.0294C96.8753 16.5331 96.4605 15.5139 95.6572 15.006C94.6313 14.356 93.267 14.1602 89.7317 14.1602C87.4177 14.1602 85.8081 14.3025 84.7857 14.5564C82.9565 15.0333 82.2495 16.1365 82.2495 18.426C82.2495 20.9956 83.2487 21.984 86.077 22.2108C86.7106 22.2378 89.4396 22.2956 90.5616 22.2686C93.4403 22.2108 94.0969 22.5225 94.0969 23.8187C94.0969 25.1188 93.3393 25.4306 90.1234 25.4306C86.15 25.4306 85.4661 25.1767 85.4661 23.565V23.4265H82.1035V23.565C82.1035 24.9806 82.2963 25.769 82.8571 26.4768C83.7101 27.6076 85.0778 27.9153 89.0014 27.9153C91.999 27.9153 93.7783 27.8036 94.7542 27.55C96.6795 27.0423 97.3866 25.938 97.3866 23.5111C97.3866 21.8982 96.9982 20.8834 96.1685 20.3449Z" fill="#1A2042"/>
<path d="M100.557 14.4121V27.6591H103.773V14.4121H100.557Z" fill="#1A2042"/>
<path d="M121.692 15.7123C120.616 14.5545 118.863 14.1582 114.84 14.1582C113.207 14.1582 110.867 14.3852 110.014 14.6391C109.356 14.8352 108.696 15.2046 108.281 15.6277C107.405 16.5315 107.062 18.001 107.062 20.9935C107.062 26.8709 108.234 27.9132 114.717 27.9132C116.912 27.9132 119.179 27.6898 120.082 27.3785C120.666 27.1786 121.373 26.7285 121.788 26.2478C122.422 25.5136 122.81 23.6205 122.81 21.2781C122.81 17.9432 122.545 16.6431 121.692 15.7123ZM118.522 24.5822C117.961 24.9476 116.888 25.09 114.571 25.09C110.963 25.09 110.329 24.4976 110.329 21.0781C110.329 19.4126 110.502 18.5356 110.963 17.9432C111.5 17.209 112.549 16.9816 115.401 16.9816C118.936 16.9816 119.544 17.604 119.544 21.1632C119.544 23.1705 119.278 24.0745 118.522 24.5822Z" fill="#1A2042"/>
<path d="M139.899 15.766C138.949 14.5545 137.485 14.0742 134.78 14.0742C131.149 14.0742 129.953 14.7513 129.22 17.2937V14.4121H126.076V27.6591H129.293V20.9665C129.293 18.0855 130.441 17.0969 133.804 17.0969C136.875 17.0969 137.681 17.747 137.681 20.2588V27.6594H140.898V20.0895C140.898 17.8855 140.629 16.7276 139.899 15.766Z" fill="#1A2042"/>
<path d="M112.497 0L102.163 11.9737L97.3848 6.83561L102.098 9.24066L112.497 0Z" fill="#1E599B"/>
</svg>
