<svg width="26" height="31" viewBox="0 0 26 31" fill="none" xmlns="http://www.w3.org/2000/svg">
<path d="M10.8916 29.3945V26.8886H2.5144C1.79763 26.8886 1.19963 26.6655 0.720401 26.2194C0.241171 25.7732 0.0010373 25.216 0 24.5478V6.05296C0 5.38567 0.240134 4.82895 0.720401 4.3828C1.20067 3.93666 1.79867 3.7131 2.5144 3.71214H10.8916V1.20618C10.8916 1.00049 10.9663 0.828116 11.1157 0.689057C11.265 0.549998 11.4502 0.480469 11.6711 0.480469C11.8921 0.480469 12.0767 0.549998 12.225 0.689057C12.3734 0.828116 12.4475 1.00001 12.4475 1.20473V29.396C12.4475 29.6007 12.3729 29.7726 12.2235 29.9117C12.0741 30.0507 11.889 30.1203 11.668 30.1203C11.4471 30.1203 11.2624 30.0507 11.1141 29.9117C10.9658 29.7726 10.8916 29.6007 10.8916 29.396M16.6361 26.8886C16.4162 26.8886 16.2316 26.8191 16.0822 26.68C15.9329 26.541 15.8582 26.3686 15.8582 26.1629C15.8582 25.9572 15.9329 25.7853 16.0822 25.6472C16.2316 25.5091 16.4162 25.4401 16.6361 25.4401H22.681C22.9196 25.4401 23.1389 25.3474 23.3391 25.162C23.5393 24.9765 23.6389 24.7718 23.6379 24.5478V6.05296C23.6379 5.82989 23.5383 5.62516 23.3391 5.43878C23.14 5.2524 22.9206 5.1597 22.681 5.16066H16.6361C16.4162 5.16066 16.2316 5.09114 16.0822 4.95208C15.9329 4.81302 15.8582 4.64064 15.8582 4.43495C15.8582 4.22926 15.9329 4.05737 16.0822 3.91928C16.2316 3.78118 16.4162 3.71214 16.6361 3.71214H22.681C23.3967 3.71214 23.9947 3.93569 24.475 4.3828C24.9552 4.82992 25.1949 5.38664 25.1938 6.05296V24.5492C25.1938 25.2155 24.9542 25.7723 24.475 26.2194C23.9957 26.6665 23.3977 26.8896 22.681 26.8886H16.6361ZM16.6361 16.0246C16.4162 16.0246 16.2316 15.9551 16.0822 15.816C15.9329 15.677 15.8582 15.5046 15.8582 15.2989C15.8582 15.0932 15.9329 14.9213 16.0822 14.7832C16.2316 14.6451 16.4162 14.5761 16.6361 14.5761H20.526C20.7469 14.5761 20.9321 14.6456 21.0815 14.7847C21.2308 14.9237 21.305 15.0961 21.304 15.3018C21.3029 15.5075 21.2288 15.6794 21.0815 15.8175C20.9342 15.9556 20.749 16.0246 20.526 16.0246H16.6361ZM16.6361 10.9548C16.4162 10.9548 16.2316 10.8853 16.0822 10.7462C15.9329 10.6071 15.8582 10.4348 15.8582 10.2291C15.8582 10.0234 15.9329 9.85148 16.0822 9.71339C16.2316 9.5753 16.4162 9.50625 16.6361 9.50625H20.526C20.7469 9.50625 20.9321 9.57578 21.0815 9.71484C21.2308 9.8539 21.305 10.0263 21.304 10.232C21.3029 10.4377 21.2288 10.6095 21.0815 10.7476C20.9342 10.8857 20.749 10.9548 20.526 10.9548H16.6361ZM6.22377 21.0945H10.1136C10.3346 21.0945 10.5192 21.025 10.6675 20.8859C10.8159 20.7468 10.8906 20.5745 10.8916 20.3688C10.8926 20.1631 10.818 19.9912 10.6675 19.8531C10.5171 19.715 10.3325 19.646 10.1136 19.646H6.22377C6.00283 19.646 5.81819 19.7155 5.66986 19.8545C5.52152 19.9936 5.44684 20.166 5.4458 20.3717C5.44476 20.5774 5.51945 20.7492 5.66986 20.8873C5.82026 21.0254 6.0049 21.0945 6.22377 21.0945ZM6.22377 16.0246H10.1136C10.3346 16.0246 10.5192 15.9551 10.6675 15.816C10.8159 15.677 10.8906 15.5046 10.8916 15.2989C10.8926 15.0932 10.818 14.9213 10.6675 14.7832C10.5171 14.6451 10.3325 14.5761 10.1136 14.5761H6.22377C6.00283 14.5761 5.81819 14.6456 5.66986 14.7847C5.52152 14.9237 5.44684 15.0961 5.4458 15.3018C5.44476 15.5075 5.51945 15.6794 5.66986 15.8175C5.82026 15.9556 6.0049 16.0246 6.22377 16.0246ZM6.22377 10.9548H10.1136C10.3346 10.9548 10.5192 10.8853 10.6675 10.7462C10.8159 10.6071 10.8906 10.4348 10.8916 10.2291C10.8926 10.0234 10.818 9.85148 10.6675 9.71339C10.5171 9.5753 10.3325 9.50625 10.1136 9.50625H6.22377C6.00283 9.50625 5.81819 9.57578 5.66986 9.71484C5.52152 9.8539 5.44684 10.0263 5.4458 10.232C5.44476 10.4377 5.51945 10.6095 5.66986 10.7476C5.82026 10.8857 6.0049 10.9548 6.22377 10.9548Z" fill="#1A2042"/>
</svg>
