<svg width="24" height="24" viewBox="0 0 24 24" fill="none" xmlns="http://www.w3.org/2000/svg">
<path d="M14.8309 1.88171C15.1462 1.55296 15.524 1.29045 15.9421 1.10956C16.3601 0.928681 16.8101 0.833062 17.2656 0.828311C17.7211 0.823561 18.173 0.909774 18.5947 1.0819C19.0165 1.25402 19.3996 1.5086 19.7217 1.8307C20.0438 2.1528 20.2984 2.53596 20.4705 2.95771C20.6427 3.37946 20.7289 3.83133 20.7241 4.28682C20.7194 4.74232 20.6238 5.19229 20.4429 5.61036C20.262 6.02843 19.9995 6.40619 19.6707 6.72151L17.8899 8.50091L18.0103 8.62131C18.2705 8.88133 18.4768 9.19005 18.6176 9.52983C18.7584 9.86962 18.8308 10.2338 18.8308 10.6016C18.8308 10.9694 18.7584 11.3336 18.6176 11.6734C18.4768 12.0132 18.2705 12.3219 18.0103 12.5819L15.9943 14.5965C15.8623 14.724 15.6855 14.7946 15.502 14.793C15.3184 14.7914 15.1428 14.7178 15.0131 14.588C14.8833 14.4582 14.8097 14.2826 14.8081 14.0991C14.8065 13.9156 14.877 13.7387 15.0045 13.6067L17.0205 11.5907C17.283 11.3282 17.4304 10.9721 17.4304 10.6009C17.4304 10.2297 17.283 9.87365 17.0205 9.61111L16.9001 9.49071L7.59573 18.7965C7.50566 18.8861 7.39289 18.9495 7.26953 18.9799L1.66953 20.3799C1.54793 20.4101 1.42044 20.4071 1.30039 20.3713C1.18033 20.3354 1.0721 20.2679 0.987002 20.176C0.9019 20.084 0.843043 19.9709 0.816576 19.8484C0.790109 19.7259 0.797 19.5986 0.836532 19.4797L2.58653 14.2297C2.62066 14.1269 2.67817 14.0335 2.75453 13.9567L14.8309 1.88171ZM2.57533 21.6679L2.50533 21.6147L4.39253 21.1429C5.14573 21.5209 6.05573 21.8009 7.10013 21.8009C7.80993 21.8009 8.51973 21.5531 9.24773 21.1387C9.97853 20.7215 10.6813 20.1657 11.3841 19.5959L11.5661 19.4475C12.1891 18.9393 12.8289 18.4185 13.4379 18.0587C14.0987 17.6695 14.8995 17.3629 15.7213 17.6387C16.8721 18.0209 17.2347 19.0793 17.5707 20.2007C17.6477 20.4569 17.7793 20.7103 17.9347 20.8853C18.0901 21.0603 18.2147 21.1009 18.3001 21.1009C18.5619 21.1009 18.9385 20.9595 19.4159 20.6767C19.7183 20.4989 19.9801 20.3183 20.2391 20.1391C20.3959 20.029 20.556 19.9207 20.7193 19.8143C21.1645 19.5259 21.5481 19.3327 21.8253 19.2109C21.9676 19.1489 22.1124 19.0929 22.2593 19.0429L22.2873 19.0345L22.2985 19.0317L22.3027 19.0303L22.5001 19.7023L22.3041 19.0303C22.4803 18.9838 22.6677 19.0079 22.8265 19.0975C22.9852 19.187 23.1028 19.3349 23.1542 19.5097C23.2056 19.6845 23.1868 19.8725 23.1018 20.0337C23.0168 20.1949 22.8722 20.3166 22.6989 20.3729L22.6891 20.3757L22.6331 20.3953C22.5509 20.4254 22.4697 20.4581 22.3895 20.4933C22.1725 20.5885 21.8575 20.7453 21.4809 20.9889C21.3829 21.0533 21.2555 21.1401 21.1127 21.2381C20.8215 21.4383 20.4617 21.6861 20.1271 21.8821C19.6203 22.1817 18.9651 22.5009 18.3001 22.5009C17.6841 22.5009 17.2081 22.1761 16.8889 21.8149C16.5841 21.4632 16.3591 21.0495 16.2295 20.6025C15.8613 19.3761 15.6499 19.0905 15.2775 18.9645C15.0507 18.8903 14.7133 18.9323 14.1491 19.2655C13.6367 19.5679 13.0795 20.0215 12.4299 20.5493L12.2661 20.6823C11.5689 21.2493 10.7849 21.8737 9.94073 22.3553C9.09373 22.8369 8.14033 23.2009 7.10013 23.2009C5.15693 23.2009 3.61553 22.4239 2.57533 21.6679Z" fill="#1E599B"/>
</svg>
