<svg width="40" height="40" viewBox="0 0 40 40" fill="none" xmlns="http://www.w3.org/2000/svg">
<path d="M9.99935 33.3334C9.08268 33.3334 8.29824 33.0072 7.64602 32.355C6.99379 31.7028 6.66713 30.9178 6.66602 30V26.6667C6.66602 26.1945 6.82602 25.7989 7.14602 25.48C7.46602 25.1611 7.86157 25.0011 8.33268 25C8.80379 24.9989 9.1999 25.1589 9.52102 25.48C9.84213 25.8011 10.0016 26.1967 9.99935 26.6667V30H29.9993V26.6667C29.9993 26.1945 30.1593 25.7989 30.4793 25.48C30.7993 25.1611 31.1949 25.0011 31.666 25C32.1371 24.9989 32.5332 25.1589 32.8543 25.48C33.1755 25.8011 33.3349 26.1967 33.3327 26.6667V30C33.3327 30.9167 33.0066 31.7017 32.3543 32.355C31.7021 33.0084 30.9171 33.3345 29.9993 33.3334H9.99935ZM18.3327 13.0834L15.2077 16.2084C14.8743 16.5417 14.4788 16.7017 14.021 16.6884C13.5632 16.675 13.1671 16.5011 12.8327 16.1667C12.5271 15.8334 12.3671 15.4445 12.3527 15C12.3382 14.5556 12.4982 14.1667 12.8327 13.8334L18.8327 7.83336C18.9993 7.66669 19.1799 7.54891 19.3743 7.48003C19.5688 7.41114 19.7771 7.37614 19.9993 7.37503C20.2216 7.37391 20.4299 7.40891 20.6243 7.48003C20.8188 7.55114 20.9993 7.66891 21.166 7.83336L27.166 13.8334C27.4993 14.1667 27.6593 14.5556 27.646 15C27.6327 15.4445 27.4727 15.8334 27.166 16.1667C26.8327 16.5 26.4371 16.6739 25.9793 16.6884C25.5216 16.7028 25.1255 16.5428 24.791 16.2084L21.666 13.0834V25C21.666 25.4722 21.506 25.8684 21.186 26.1884C20.866 26.5084 20.4705 26.6678 19.9993 26.6667C19.5282 26.6656 19.1327 26.5056 18.8127 26.1867C18.4927 25.8678 18.3327 25.4722 18.3327 25V13.0834Z" fill="white"/>
</svg>
