<svg width="18" height="18" viewBox="0 0 18 18" fill="none" xmlns="http://www.w3.org/2000/svg">
<path d="M9.30469 1.44141V6.48724L10.7436 5.04557" stroke="white" stroke-linecap="round" stroke-linejoin="round"/>
<path d="M9.30416 6.48757L7.86523 5.0459" stroke="white" stroke-linecap="round" stroke-linejoin="round"/>
<path d="M2.0957 9.37109H5.26854C5.54194 9.37109 5.78655 9.52247 5.90886 9.76755L6.75064 11.4543C6.99525 11.9445 7.49168 12.2544 8.03848 12.2544H10.5782C11.125 12.2544 11.6214 11.9445 11.866 11.4543L12.7078 9.76755C12.8301 9.52247 13.0819 9.37109 13.3481 9.37109H16.485" stroke="white" stroke-linecap="round" stroke-linejoin="round"/>
<path d="M5.7067 2.97656C3.15979 3.3514 2.10938 4.85073 2.10938 7.92869V10.812C2.10938 14.4162 3.5483 15.8579 7.14562 15.8579H11.4624C15.0597 15.8579 16.4987 14.4162 16.4987 10.812V7.92869C16.4987 4.85073 15.4482 3.3514 12.9013 2.97656" stroke="white" stroke-linecap="round" stroke-linejoin="round"/>
</svg>
