<svg width="187" height="28" viewBox="0 0 187 28" fill="none" xmlns="http://www.w3.org/2000/svg">
<g clip-path="url(#clip0_51_215)">
<path d="M62.657 20.8827V21.3058C62.657 23.256 62.0462 24.0176 60.2902 24.2138L55.3178 24.3291C50.2491 24.3291 49.8572 23.906 49.8572 18.4248C49.8572 14.355 50.0531 13.3128 50.9792 12.7474C51.7592 12.2666 52.8547 12.1512 56.6816 12.1512C62.0228 12.1512 62.5106 12.4051 62.5106 15.1475H66.0918C66.0685 12.8014 65.7034 11.1934 65.0195 10.3435C63.9705 9.01642 62.1182 8.65173 56.4883 8.65173C51.3431 8.65173 49.6601 8.87869 48.2725 9.77869C46.5662 10.8827 46.1015 12.6635 46.1015 17.9184C46.1015 20.5726 46.2244 22.7765 46.4434 23.7343C46.7588 25.1768 47.3695 26.1922 48.2958 26.7885C49.7331 27.6923 50.9281 27.8308 57.4141 27.8308C62.7021 27.8308 64.2391 27.4923 65.3615 26.0538C66.0454 25.2038 66.2877 23.8767 66.2877 21.1918V20.8841L62.657 20.8827Z" fill="white"/>
<path d="M83.3742 15.6553C82.448 14.4705 81.0107 14.159 76.599 14.159C73.2828 14.159 71.9185 14.4399 70.9192 15.3745C70.2122 16.0246 69.9434 16.7862 69.8936 18.2555H73.1368C73.2595 16.84 73.6977 16.6708 76.9874 16.6708C80.4997 16.6708 80.9609 17.0132 80.9609 19.6942V21.1365C80.4763 19.7518 79.5467 19.4128 76.3068 19.4128C70.5508 19.4128 69.3824 20.147 69.3824 23.79C69.3824 25.5441 69.7974 26.6171 70.7235 27.2095C71.5268 27.7442 72.8447 27.9134 75.9153 27.9134C79.4504 27.9134 80.5957 27.3787 81.0107 25.5441V27.6596H84.2268V19.4715C84.2268 17.3209 84.058 16.5323 83.3742 15.6553ZM76.8679 25.4293C75.2811 25.4293 74.5011 25.4023 74.1131 25.3446C73.0144 25.1484 72.5762 24.6369 72.5762 23.5945C72.5762 22.9175 72.8185 22.352 73.2098 22.152C73.7941 21.8405 74.8662 21.702 76.672 21.702C78.6206 21.702 79.7692 21.8405 80.3771 22.152C80.7689 22.3212 80.988 22.8291 80.988 23.4791C80.9874 25.0638 80.2073 25.4293 76.8679 25.4293Z" fill="white"/>
<path d="M100.194 16.0241C99.5867 14.7779 98.1495 14.1585 95.8556 14.1585C94.368 14.1585 93.1734 14.4394 92.4198 14.9201C91.8322 15.3164 91.5401 15.7971 91.0287 17.2088V14.4129H87.9319V27.6599H91.1518V20.8519C91.1518 18.1706 92.1742 17.1247 94.8797 17.1247C96.2208 17.1247 97.1237 17.49 97.4159 18.1401C97.6117 18.621 97.6614 19.0179 97.6614 20.1749H100.709C100.732 19.8096 100.732 19.471 100.732 19.329C100.732 17.7478 100.586 16.8132 100.194 16.0241Z" fill="white"/>
<path d="M103.291 8.76215V27.6602H106.508V8.76215H103.291Z" fill="white"/>
<path d="M121.818 14.4129V21.1058C121.818 23.9906 120.672 24.9792 117.306 24.9792C114.186 24.9792 113.433 24.3568 113.433 21.8135V14.4129H110.213V21.9828C110.213 24.1868 110.482 25.3445 111.212 26.3061C112.165 27.5217 113.625 27.9979 116.334 27.9979C119.965 27.9979 121.16 27.3209 121.891 24.7784V27.6594H125.034V14.4124L121.818 14.4129Z" fill="white"/>
<path d="M142.27 20.3442C141.32 19.7249 140.175 19.5556 137.201 19.5556H135.418C132.201 19.5556 131.667 19.3556 131.667 18.2247C131.667 17.0131 132.543 16.6438 135.59 16.6438C138.88 16.6438 139.637 16.8977 139.637 18.0017V18.1134H142.976V18.0287C142.976 16.5324 142.562 15.5132 141.758 15.0053C140.732 14.3553 139.368 14.1594 135.833 14.1594C133.519 14.1594 131.909 14.3018 130.887 14.5557C129.058 15.0326 128.351 16.1358 128.351 18.4253C128.351 20.9949 129.35 21.9833 132.178 22.2101C132.812 22.2371 135.541 22.2948 136.663 22.2679C139.541 22.2101 140.198 22.5218 140.198 23.8179C140.198 25.118 139.44 25.4299 136.224 25.4299C132.251 25.4299 131.567 25.176 131.567 23.5643V23.4258H128.205V23.5643C128.205 24.9798 128.397 25.7683 128.958 26.4761C129.811 27.6069 131.179 27.9146 135.102 27.9146C138.1 27.9146 139.879 27.8029 140.855 27.5493C142.781 27.0416 143.488 25.9373 143.488 23.5104C143.488 21.8974 143.099 20.8827 142.27 20.3442Z" fill="white"/>
<path d="M146.658 14.4129V27.6599H149.874V14.4129H146.658Z" fill="white"/>
<path d="M167.793 15.713C166.718 14.5553 164.965 14.159 160.942 14.159C159.308 14.159 156.968 14.386 156.115 14.6399C155.458 14.836 154.797 15.2053 154.382 15.6285C153.506 16.5323 153.164 18.0017 153.164 20.9943C153.164 26.8716 154.336 27.914 160.819 27.914C163.013 27.914 165.28 27.6906 166.183 27.3793C166.768 27.1794 167.475 26.7293 167.89 26.2486C168.523 25.5144 168.912 23.6213 168.912 21.2789C168.912 17.944 168.646 16.6438 167.793 15.713ZM164.623 24.5829C164.062 24.9484 162.99 25.0908 160.673 25.0908C157.064 25.0908 156.43 24.4984 156.43 21.0789C156.43 19.4134 156.603 18.5364 157.064 17.944C157.602 17.2098 158.651 16.9824 161.502 16.9824C165.038 16.9824 165.645 17.6048 165.645 21.1639C165.646 23.1713 165.38 24.0753 164.623 24.5829Z" fill="white"/>
<path d="M186.001 15.7668C185.052 14.5553 183.588 14.075 180.883 14.075C177.251 14.075 176.056 14.752 175.322 17.2945V14.4129H172.179V27.6599H175.396V20.9673C175.396 18.0863 176.544 17.0977 179.907 17.0977C182.977 17.0977 183.784 17.7478 183.784 20.2596V27.6602H187.001V20.0903C187 17.8863 186.731 16.7284 186.001 15.7668Z" fill="white"/>
<path d="M41.8819 8.39157L39.9673 13.2057C39.9642 13.2135 39.9593 13.2202 39.953 13.2249C39.9467 13.2296 39.9394 13.2321 39.9319 13.2321H13.0264C13.0189 13.2321 13.0116 13.2346 13.0053 13.2393C12.999 13.244 12.9941 13.2506 12.991 13.2585L9.11185 23.0217C9.1093 23.0286 9.10825 23.0361 9.10878 23.0435C9.10932 23.051 9.11143 23.0582 9.11492 23.0645C9.11841 23.0708 9.12319 23.076 9.12882 23.0797C9.13446 23.0833 9.14078 23.0853 9.14724 23.0855H17.9535C17.96 23.0857 17.9663 23.0877 17.9719 23.0914C17.9776 23.095 17.9823 23.1003 17.9858 23.1066C17.9893 23.1129 17.9914 23.1201 17.992 23.1275C17.9925 23.135 17.9915 23.1425 17.9889 23.1494L16.0741 27.9678C16.071 27.9756 16.066 27.9823 16.0597 27.987C16.0535 27.9917 16.0461 27.9941 16.0387 27.9941H0.0387795C0.0323184 27.9939 0.0259933 27.9919 0.0203581 27.9882C0.0147229 27.9846 0.00994954 27.9794 0.00645605 27.9731C0.00296255 27.9668 0.000855477 27.9596 0.000319359 27.9521C-0.000216759 27.9446 0.000834431 27.9371 0.00338087 27.9303L6.61989 11.2762C6.62302 11.2687 6.62432 11.2604 6.62364 11.2521C6.62296 11.2439 6.62033 11.236 6.61604 11.2293L4.81938 8.39891C4.81518 8.39215 4.81267 8.38419 4.81212 8.37589C4.81157 8.36759 4.813 8.35928 4.81626 8.35186C4.81952 8.34444 4.82448 8.3382 4.83059 8.33383C4.83671 8.32946 4.84374 8.32713 4.85093 8.32709H41.8465C41.853 8.32722 41.8594 8.32923 41.8651 8.33293C41.8708 8.33663 41.8756 8.34191 41.8791 8.3483C41.8826 8.35469 41.8847 8.36198 41.8852 8.36953C41.8857 8.37708 41.8845 8.38465 41.8819 8.39157Z" fill="white"/>
<path d="M36.0077 23.1583L34.0946 27.9709C34.0912 27.9796 34.0857 27.987 34.0788 27.9922C34.0718 27.9975 34.0638 28.0002 34.0555 28.0003H17.8815C17.8743 28.0003 17.8673 27.9981 17.861 27.9941C17.8547 27.9901 17.8494 27.9844 17.8455 27.9774C17.8416 27.9704 17.8393 27.9624 17.8387 27.9541C17.8382 27.9458 17.8394 27.9375 17.8424 27.9299L22.9553 15.0609C22.9588 15.0521 22.9643 15.0447 22.9713 15.0395C22.9782 15.0343 22.9863 15.0315 22.9946 15.0315H30.056C30.0632 15.0315 30.0703 15.0336 30.0766 15.0376C30.0829 15.0416 30.0882 15.0473 30.0921 15.0543C30.096 15.0613 30.0984 15.0693 30.0989 15.0776C30.0995 15.0859 30.0982 15.0943 30.0953 15.1019L26.9495 23.0182C26.9465 23.0258 26.9453 23.0341 26.9458 23.0424C26.9464 23.0507 26.9487 23.0587 26.9526 23.0657C26.9565 23.0727 26.9618 23.0784 26.9682 23.0824C26.9745 23.0864 26.9815 23.0885 26.9887 23.0885H35.9684C35.9755 23.0886 35.9825 23.0907 35.9888 23.0947C35.995 23.0986 36.0003 23.1043 36.0042 23.1112C36.0081 23.1181 36.0104 23.126 36.011 23.1342C36.0116 23.1425 36.0105 23.1507 36.0077 23.1583Z" fill="white"/>
<path d="M158.599 0L148.266 11.9737L143.488 6.83561L148.2 9.24066L158.599 0Z" fill="white"/>
</g>
<defs>
<clipPath id="clip0_51_215">
<rect width="187" height="28" fill="white"/>
</clipPath>
</defs>
</svg>
