<svg width="119" height="22" viewBox="0 0 119 22" fill="none" xmlns="http://www.w3.org/2000/svg">
<g clip-path="url(#clip0_270_471)">
<path d="M39.8727 16.408V16.7404C39.8727 18.2727 39.484 18.8711 38.3665 19.0252L35.2023 19.1159C31.9768 19.1159 31.7274 18.7834 31.7274 14.4768C31.7274 11.279 31.852 10.4601 32.4414 10.016C32.9378 9.63813 33.6349 9.54747 36.0702 9.54747C39.4691 9.54747 39.7796 9.74698 39.7796 11.9018H42.0585C42.0437 10.0584 41.8113 8.79493 41.3761 8.12717C40.7086 7.08445 39.5299 6.79791 35.9472 6.79791C32.673 6.79791 31.602 6.97623 30.719 7.68337C29.6331 8.55078 29.3374 9.95001 29.3374 14.0789C29.3374 16.1643 29.4156 17.896 29.555 18.6485C29.7557 19.7819 30.1443 20.5797 30.7338 21.0482C31.6484 21.7583 32.4089 21.8672 36.5363 21.8672C39.9014 21.8672 40.8795 21.6012 41.5938 20.471C42.029 19.8031 42.1831 18.7604 42.1831 16.6509V16.4091L39.8727 16.408Z" fill="#1A2042"/>
<path d="M53.0565 12.3008C52.4671 11.3699 51.5525 11.1251 48.745 11.1251C46.6347 11.1251 45.7665 11.3458 45.1306 12.0802C44.6807 12.5909 44.5096 13.1894 44.478 14.3438H46.5418C46.6199 13.2316 46.8987 13.0987 48.9922 13.0987C51.2273 13.0987 51.5207 13.3677 51.5207 15.4742V16.6074C51.2124 15.5194 50.6208 15.2531 48.5591 15.2531C44.8961 15.2531 44.1526 15.8299 44.1526 18.6924C44.1526 20.0705 44.4167 20.9136 45.006 21.3791C45.5172 21.7992 46.3559 21.9321 48.3099 21.9321C50.5595 21.9321 51.2884 21.512 51.5525 20.0705V21.7327H53.599V15.2992C53.599 13.6095 53.4917 12.9898 53.0565 12.3008ZM48.9161 19.9804C47.9063 19.9804 47.41 19.9592 47.1631 19.9138C46.4639 19.7597 46.185 19.3577 46.185 18.5387C46.185 18.0068 46.3392 17.5625 46.5882 17.4054C46.9601 17.1606 47.6423 17.0517 48.7914 17.0517C50.0314 17.0517 50.7624 17.1606 51.1493 17.4054C51.3985 17.5383 51.538 17.9373 51.538 18.4481C51.5376 19.6932 51.0412 19.9804 48.9161 19.9804Z" fill="#1A2042"/>
<path d="M63.7601 12.5909C63.3735 11.6118 62.4589 11.1251 60.9991 11.1251C60.0525 11.1251 59.2923 11.3458 58.8127 11.7235C58.4388 12.0349 58.2529 12.4126 57.9275 13.5218V11.325H55.9568V21.7334H58.0058V16.3842C58.0058 14.2775 58.6564 13.4557 60.3781 13.4557C61.2316 13.4557 61.8061 13.7428 61.992 14.2535C62.1167 14.6314 62.1483 14.9432 62.1483 15.8523H64.0875C64.1023 15.5652 64.1023 15.2992 64.1023 15.1876C64.1023 13.9453 64.0094 13.2109 63.7601 12.5909Z" fill="#1A2042"/>
<path d="M65.7314 6.88511V21.7336H67.7785V6.88511H65.7314Z" fill="#1A2042"/>
<path d="M77.5206 11.3239V16.5826C77.5206 18.8493 76.7917 19.626 74.6497 19.626C72.6641 19.626 72.1845 19.1369 72.1845 17.1387V11.3239H70.1355V17.2717C70.1355 19.0034 70.3066 19.9131 70.7713 20.6686C71.3776 21.6237 72.3071 21.9979 74.0308 21.9979C76.3418 21.9979 77.1023 21.4659 77.567 19.4683V21.7319H79.5675V11.3235L77.5206 11.3239Z" fill="#1A2042"/>
<path d="M90.5351 15.9846C89.931 15.498 89.2022 15.365 87.3096 15.365H86.175C84.128 15.365 83.7879 15.2078 83.7879 14.3192C83.7879 13.3673 84.3456 13.0771 86.2848 13.0771C88.3782 13.0771 88.8599 13.2766 88.8599 14.144V14.2318H90.985V14.1652C90.985 12.9896 90.721 12.1888 90.2098 11.7897C89.5569 11.279 88.6888 11.1251 86.439 11.1251C84.9665 11.1251 83.9422 11.237 83.2915 11.4365C82.1275 11.8112 81.6776 12.678 81.6776 14.4769C81.6776 16.4958 82.3134 17.2724 84.1133 17.4506C84.5165 17.4718 86.2531 17.5172 86.9671 17.496C88.799 17.4506 89.2169 17.6955 89.2169 18.7139C89.2169 19.7355 88.7348 19.9805 86.6883 19.9805C84.1597 19.9805 83.7245 19.781 83.7245 18.5147V18.4058H81.5847V18.5147C81.5847 19.6269 81.7074 20.2463 82.0643 20.8025C82.6071 21.691 83.4775 21.9327 85.9743 21.9327C87.8818 21.9327 89.0141 21.845 89.6351 21.6457C90.8603 21.2468 91.3103 20.3791 91.3103 18.4723C91.3103 17.205 91.0631 16.4077 90.5351 15.9846Z" fill="#1A2042"/>
<path d="M93.3271 11.3248V21.7331H95.3741V11.3248H93.3271Z" fill="#1A2042"/>
<path d="M106.777 12.3462C106.093 11.4365 104.977 11.1251 102.417 11.1251C101.378 11.1251 99.8886 11.3034 99.3458 11.503C98.9275 11.6571 98.5071 11.9472 98.2431 12.2797C97.6854 12.9898 97.4678 14.1444 97.4678 16.4957C97.4678 21.1136 98.2135 21.9326 102.339 21.9326C103.735 21.9326 105.178 21.7571 105.753 21.5125C106.125 21.3554 106.574 21.0018 106.839 20.6241C107.242 20.0472 107.489 18.5598 107.489 16.7193C107.489 14.099 107.32 13.0775 106.777 12.3462ZM104.76 19.3154C104.403 19.6025 103.721 19.7144 102.246 19.7144C99.9496 19.7144 99.5464 19.2489 99.5464 16.5622C99.5464 15.2536 99.6563 14.5645 99.9496 14.099C100.292 13.5222 100.959 13.3435 102.774 13.3435C105.024 13.3435 105.41 13.8325 105.41 16.629C105.411 18.2062 105.242 18.9165 104.76 19.3154Z" fill="#1A2042"/>
<path d="M118.365 12.3887C117.761 11.4367 116.829 11.0594 115.107 11.0594C112.796 11.0594 112.036 11.5914 111.569 13.589V11.3249H109.569V21.7332H111.616V16.4748C111.616 14.2111 112.346 13.4344 114.486 13.4344C116.44 13.4344 116.954 13.9451 116.954 15.9187V21.7335H119.001V15.7857C119 14.054 118.829 13.1442 118.365 12.3887Z" fill="#1A2042"/>
<path d="M26.6517 6.59338L25.4334 10.3759C25.4314 10.3821 25.4283 10.3873 25.4243 10.391C25.4203 10.3947 25.4156 10.3967 25.4109 10.3967H8.28914C8.28439 10.3967 8.27974 10.3986 8.27575 10.4023C8.27175 10.406 8.26858 10.4112 8.26661 10.4174L5.79809 18.0885C5.79647 18.0939 5.7958 18.0998 5.79614 18.1056C5.79648 18.1115 5.79782 18.1172 5.80004 18.1221C5.80227 18.1271 5.8053 18.1311 5.80889 18.134C5.81248 18.1369 5.8165 18.1385 5.82061 18.1386H11.4246C11.4287 18.1388 11.4327 18.1403 11.4363 18.1432C11.4399 18.1461 11.4429 18.1502 11.4452 18.1552C11.4474 18.1601 11.4487 18.1658 11.4491 18.1716C11.4494 18.1775 11.4487 18.1834 11.4471 18.1888L10.2286 21.9747C10.2266 21.9809 10.2235 21.9861 10.2195 21.9898C10.2155 21.9935 10.2108 21.9954 10.2061 21.9954H0.0243172C0.0202056 21.9952 0.0161805 21.9936 0.0125945 21.9908C0.00900846 21.9879 0.00597086 21.9838 0.00374773 21.9788C0.0015246 21.9739 0.000183732 21.9682 -0.000157434 21.9624C-0.0004986 21.9565 0.000170339 21.9506 0.0017908 21.9452L4.2123 8.85989C4.21429 8.85402 4.21512 8.84747 4.21468 8.84097C4.21425 8.83446 4.21258 8.82826 4.20984 8.82303L3.06652 6.59915C3.06385 6.59384 3.06225 6.58758 3.0619 6.58106C3.06155 6.57454 3.06246 6.56801 3.06453 6.56218C3.0666 6.55635 3.06976 6.55145 3.07365 6.54802C3.07754 6.54458 3.08202 6.54275 3.08659 6.54272H26.6292C26.6334 6.54282 26.6374 6.5444 26.6411 6.54731C26.6447 6.55022 26.6478 6.55437 26.65 6.55938C26.6522 6.5644 26.6536 6.57014 26.6539 6.57607C26.6542 6.582 26.6534 6.58795 26.6517 6.59338Z" fill="#1A2042"/>
<path d="M22.9144 18.1954L21.697 21.9768C21.6949 21.9836 21.6914 21.9894 21.6869 21.9935C21.6825 21.9976 21.6774 21.9998 21.6721 21.9999H11.3796C11.375 21.9998 11.3705 21.9982 11.3665 21.995C11.3625 21.9919 11.3591 21.9874 11.3567 21.9819C11.3542 21.9764 11.3527 21.9701 11.3524 21.9636C11.352 21.9571 11.3528 21.9505 11.3547 21.9446L14.6084 11.8332C14.6106 11.8263 14.6141 11.8205 14.6185 11.8164C14.623 11.8123 14.6281 11.8101 14.6334 11.8101H19.127C19.1316 11.8101 19.1361 11.8118 19.1401 11.8149C19.1441 11.818 19.1475 11.8225 19.15 11.828C19.1525 11.8335 19.154 11.8398 19.1543 11.8464C19.1547 11.8529 19.1539 11.8594 19.152 11.8654L17.1501 18.0853C17.1482 18.0913 17.1474 18.0978 17.1478 18.1044C17.1481 18.1109 17.1496 18.1172 17.1521 18.1227C17.1546 18.1282 17.158 18.1327 17.162 18.1358C17.166 18.139 17.1705 18.1406 17.1751 18.1406H22.8894C22.894 18.1407 22.8984 18.1423 22.9024 18.1454C22.9064 18.1485 22.9097 18.153 22.9122 18.1584C22.9147 18.1639 22.9162 18.1701 22.9166 18.1765C22.9169 18.183 22.9162 18.1895 22.9144 18.1954Z" fill="#1E599B"/>
<path d="M100.928 0L94.3518 9.4079L91.311 5.37084L94.3101 7.26052L100.928 0Z" fill="#1E599B"/>
</g>
<defs>
<clipPath id="clip0_270_471">
<rect width="119" height="22" fill="white"/>
</clipPath>
</defs>
</svg>
